<svg id="visual" viewBox="0 0 450 900" width="450" height="900" xmlns="http://www.w3.org/2000/svg" xmlns:xlink="http://www.w3.org/1999/xlink" version="1.1"><path d="M351 900L327 900L327 857L339 857L339 814L257 814L257 771L274 771L274 729L323 729L323 686L338 686L338 643L251 643L251 600L264 600L264 557L325 557L325 514L386 514L386 471L240 471L240 429L362 429L362 386L281 386L281 343L361 343L361 300L365 300L365 257L288 257L288 214L366 214L366 171L316 171L316 129L239 129L239 86L363 86L363 43L250 43L250 0L450 0L450 43L450 43L450 86L450 86L450 129L450 129L450 171L450 171L450 214L450 214L450 257L450 257L450 300L450 300L450 343L450 343L450 386L450 386L450 429L450 429L450 471L450 471L450 514L450 514L450 557L450 557L450 600L450 600L450 643L450 643L450 686L450 686L450 729L450 729L450 771L450 771L450 814L450 814L450 857L450 857L450 900L450 900Z" fill="#ffffff"></path></svg>