<svg id="visual" viewBox="0 0 900 900" width="900" height="900" xmlns="http://www.w3.org/2000/svg" xmlns:xlink="http://www.w3.org/1999/xlink" version="1.1"><path d="M450 900L471.7 878.5C493.3 857 536.7 814 577 771.2C617.3 728.3 654.7 685.7 659.2 642.8C663.7 600 635.3 557 625 514.2C614.7 471.3 622.3 428.7 637 385.8C651.7 343 673.3 300 678.8 257.2C684.3 214.3 673.7 171.7 672.8 128.8C672 86 681 43 685.5 21.5L690 0L900 0L900 21.5C900 43 900 86 900 128.8C900 171.7 900 214.3 900 257.2C900 300 900 343 900 385.8C900 428.7 900 471.3 900 514.2C900 557 900 600 900 642.8C900 685.7 900 728.3 900 771.2C900 814 900 857 900 878.5L900 900Z" fill="#ffffff" strokeLinecap="round" strokeLinejoin="miter"></path></svg>