<svg id="visual" viewBox="0 0 450 900" width="450" height="900" xmlns="http://www.w3.org/2000/svg" xmlns:xlink="http://www.w3.org/1999/xlink" version="1.1"><path d="M219 900L233.3 881.3C247.7 862.7 276.3 825.3 281.8 787.8C287.3 750.3 269.7 712.7 264.8 675.2C260 637.7 268 600.3 276.7 562.8C285.3 525.3 294.7 487.7 283.5 450.2C272.3 412.7 240.7 375.3 231.8 337.8C223 300.3 237 262.7 248.2 225.2C259.3 187.7 267.7 150.3 277.2 112.8C286.7 75.3 297.3 37.7 302.7 18.8L308 0L450 0L450 18.8C450 37.7 450 75.3 450 112.8C450 150.3 450 187.7 450 225.2C450 262.7 450 300.3 450 337.8C450 375.3 450 412.7 450 450.2C450 487.7 450 525.3 450 562.8C450 600.3 450 637.7 450 675.2C450 712.7 450 750.3 450 787.8C450 825.3 450 862.7 450 881.3L450 900Z" fill="#ffffff" stroke-linecap="round" stroke-linejoin="miter"></path></svg>